<?xml version="1.0" encoding="UTF-8" standalone="no"?>
<!-- Created with Inkscape (http://www.inkscape.org/) -->

<svg
   xmlns:dc="http://purl.org/dc/elements/1.1/"
   xmlns:cc="http://creativecommons.org/ns#"
   xmlns:rdf="http://www.w3.org/1999/02/22-rdf-syntax-ns#"
   xmlns:svg="http://www.w3.org/2000/svg"
   xmlns="http://www.w3.org/2000/svg"
   xmlns:sodipodi="http://sodipodi.sourceforge.net/DTD/sodipodi-0.dtd"
   xmlns:inkscape="http://www.inkscape.org/namespaces/inkscape"
   version="1.1"
   id="svg2"
   xml:space="preserve"
   width="1122.52"
   height="793.70667"
   viewBox="0 0 1122.52 793.70667"
   sodipodi:docname="Mountains.ai.svg"
   inkscape:version="0.92.4 (5da689c313, 2019-01-14)"><metadata
     id="metadata8"><rdf:RDF><cc:Work
         rdf:about=""><dc:format>image/svg+xml</dc:format><dc:type
           rdf:resource="http://purl.org/dc/dcmitype/StillImage" /><dc:title></dc:title></cc:Work></rdf:RDF></metadata><defs
     id="defs6"><clipPath
       clipPathUnits="userSpaceOnUse"
       id="clipPath18"><path
         d="m 300.808,168.143 c 2.946,-4.874 3.729,-10.606 6.373,-15.067 v 0 c 2.884,-4.865 6.174,-9.673 9.106,-14.751 v 0 c 5.28,-9.143 14.645,-14.553 21.625,-22.313 v 0 c 1.669,-1.856 3.039,-4.681 4.58,-6.596 v 0 c 19.007,-1.11 43.058,0.128 61.705,0.617 v 0 c -2.191,6.073 -22.606,12.006 -28.161,16.594 v 0 c -6.279,5.185 -7.238,12.1 -12.087,18.438 v 0 c -2.657,3.472 -5.079,5.776 -6.686,9.667 v 0 c -1.543,3.736 -1.536,6.913 -4.657,10.241 v 0 c -4.182,4.459 -11.319,9.694 -16.406,13.339 v 0 c -0.517,-2.155 -2.287,-10.401 -5.034,-10.238 v 0 c -3.381,0.202 -3.162,8.502 -4.594,10.353 v 0 c -2.175,2.808 -5.395,2.993 -7.881,5.526 v 0 c -2.204,2.244 -4.169,6.627 -5.999,9.296 v 0 c -0.055,-0.834 -0.1,-1.783 -0.24,-2.643 v 0 c -5.242,-0.304 -5.048,5.489 -7.177,8.822 v 0 c -2.087,3.269 -4.922,6.083 -7.034,9.688 v 0 c -4.37,7.461 -7.808,14.121 -14.734,18.626 v 0 l -0.745,0.746 c -4.484,-19.915 7.383,-42.71 18.046,-60.345"
         id="path16"
         inkscape:connector-curvature="0" /></clipPath><linearGradient
       x1="0"
       y1="0"
       x2="1"
       y2="0"
       gradientUnits="userSpaceOnUse"
       gradientTransform="matrix(71.607819,-101.90315,-101.90315,-71.607819,298.38574,212.22559)"
       spreadMethod="pad"
       id="linearGradient30"><stop
         style="stop-opacity:1;stop-color:#efffff"
         offset="0"
         id="stop24" /><stop
         style="stop-opacity:1;stop-color:#efffff"
         offset="0.25525973"
         id="stop26" /><stop
         style="stop-opacity:1;stop-color:#6aa7e3"
         offset="1"
         id="stop28" /></linearGradient><clipPath
       clipPathUnits="userSpaceOnUse"
       id="clipPath40"><path
         d="m 208.245,171.287 c -10.43,-5.255 -22.124,-8.575 -32.76,-13.761 v 0 c -9.741,-4.748 -17.138,-11.024 -27.568,-15.272 v 0 c -10.149,-4.133 -20.778,-6.855 -30.36,-12.292 v 0 c -9.243,-5.245 -22.878,-10.592 -29.986,-18.44 v 0 l -0.744,-2.236 c 6.805,2.509 16.498,-0.372 23.857,-0.727 v 0 c 8.031,-0.386 16.86,-0.762 25.313,-0.762 v 0 c 17.55,0 34.8,2.742 52.133,0.166 v 0 c 13.509,-2.009 51.558,-1.232 87.135,-0.455 v 0 c 30.058,0.656 58.351,1.312 68.587,0.289 v 0 c 0.575,5.422 -18.736,19.876 -22.165,23.859 v 0 c -6.744,7.83 -14.257,18.774 -18.249,28.269 v 0 c -2.739,6.517 -4.313,8.55 -8.94,14.156 v 0 c -3.463,4.195 -6.134,10.3 -8.59,15.103 v 0 c -2.699,5.283 -6.465,9.757 -8.543,15.462 v 0 c -2.311,6.344 0.49,12.261 -0.714,18.549 v 0 c -24.557,-14.248 -42.449,-38.828 -68.406,-51.908 m 135.502,-63.348 c -0.009,0.011 -0.007,0.009 0,0 m 0,0 c 0.004,-0.005 0.009,-0.013 0.016,-0.022 v 0 c -0.007,0.01 -0.013,0.017 -0.016,0.022 m 0.019,-0.027 c 0.002,-0.002 0.003,-0.004 0.005,-0.006 v 0 c -0.002,0.002 -0.003,0.004 -0.005,0.006 m 0.007,-0.008 c 0.002,-0.003 0.004,-0.006 0.007,-0.009 v 0 c -0.003,0.003 -0.005,0.006 -0.007,0.009 m 0.009,-0.013 c 0.002,-0.003 0.005,-0.006 0.007,-0.009 v 0 c -0.002,0.003 -0.005,0.006 -0.007,0.009 m 0.01,-0.013 c 0.009,-0.013 0.019,-0.026 0.028,-0.038 v 0 c -0.011,0.015 -0.02,0.027 -0.028,0.038 m 0.034,-0.046 c 0.004,-0.006 0.008,-0.011 0.011,-0.015 v 0 c -0.004,0.005 -0.007,0.01 -0.011,0.015"
         id="path38"
         inkscape:connector-curvature="0" /></clipPath><linearGradient
       x1="0"
       y1="0"
       x2="1"
       y2="0"
       gradientUnits="userSpaceOnUse"
       gradientTransform="matrix(10.025972,-115.29299,-115.29299,-10.025972,205.60693,220.71582)"
       spreadMethod="pad"
       id="linearGradient52"><stop
         style="stop-opacity:1;stop-color:#efffff"
         offset="0"
         id="stop46" /><stop
         style="stop-opacity:1;stop-color:#6ac7db"
         offset="0.994624"
         id="stop48" /><stop
         style="stop-opacity:1;stop-color:#6ac7db"
         offset="1"
         id="stop50" /></linearGradient><clipPath
       clipPathUnits="userSpaceOnUse"
       id="clipPath62"><path
         d="M 0,595.28 H 841.89 V 0 H 0 Z"
         id="path60"
         inkscape:connector-curvature="0" /></clipPath><clipPath
       clipPathUnits="userSpaceOnUse"
       id="clipPath78"><path
         d="m 656.895,501.121 c -10e-4,0.9 -0.1,1.834 -0.316,2.805 v 0 c 0.068,-0.81 0.174,-1.756 0.316,-2.805 m -8.138,-14.737 c -4.039,-4.664 -6.418,-12.595 -12.102,-15.499 v 0 c -0.197,1.774 -1.053,3.307 -1.28,5.046 v 0 c -1.165,-1.077 -3.63,-4.01 -4.275,-5.415 v 0 c -1.865,-4.051 1.071,-9.874 -0.446,-14.082 v 0 c -0.911,-2.526 -5.062,-4.583 -6.202,-7.15 v 0 c -1.775,-4.004 -0.607,-11.133 -2.457,-14.363 v 0 c -2.014,-3.516 -7.511,-3.645 -8.776,-5.752 v 0 c -2.397,-3.996 0.449,-8.995 -1.505,-12.965 v 0 c -1.072,-2.178 -6.363,-4.074 -7.964,-6.621 v 0 c -4.373,-6.959 -2.879,-15.699 -6.424,-22.632 v 0 c -2.755,-5.383 -7.39,-12.984 -12.241,-17.93 v 0 c -5.395,-5.502 -10.332,-5.504 -14.309,-13.63 v 0 c -4.137,-8.455 -9.081,-12.137 -13.957,-19.626 v 0 c -2.301,-3.534 -1.627,-7.342 -4.142,-10.576 v 0 c -1.654,-2.127 -6.715,-4.072 -8.966,-6.431 v 0 l -1.117,-4.47 c 0.839,0.36 0.67,0.796 2.213,1.139 v 0 c 15.299,3.416 39.013,3.92 54.805,2.24 v 0 c 8.51,-0.907 16.236,-4.292 25.677,-3.379 v 0 c 8.702,0.842 16.57,4.913 25.703,4.47 v 0 c 17.012,-0.823 32.845,-1.526 50.287,-2.235 v 0 c 4.72,-0.192 9.899,-0.118 15.244,-0.044 v 0 c 13.127,0.181 27.246,0.363 37.978,-3.387 v 0 c -23.767,28.698 -43.731,72.516 -51.044,106.964 v 0 c 0.141,-3.856 -1.202,-3.901 -2.181,-6.443 v 0 c -4.692,3.77 -2.558,8.845 -4.139,13.849 v 0 c -1.739,5.512 -5.528,6.477 -4.967,14.053 v 0 c -12.467,1.146 -13.271,1.403 -16.536,12.519 v 0 c -2.094,7.13 -6.117,14.43 -6.733,21.875 v 0 c -0.971,-0.979 -2.274,-2.032 -3.105,-2.824 v 0 c -4.369,4.549 -7.768,19.612 -8.901,28.036 v 0 c 0.003,-6.285 -4.806,-10.888 -8.138,-14.737"
         id="path76"
         inkscape:connector-curvature="0" /></clipPath><linearGradient
       x1="0"
       y1="0"
       x2="1"
       y2="0"
       gradientUnits="userSpaceOnUse"
       gradientTransform="matrix(40.227966,-179.3501,-179.3501,-40.227966,609.35352,488.42969)"
       spreadMethod="pad"
       id="linearGradient90"><stop
         style="stop-opacity:1;stop-color:#efffff"
         offset="0"
         id="stop84" /><stop
         style="stop-opacity:1;stop-color:#6aacdb"
         offset="0.989247"
         id="stop86" /><stop
         style="stop-opacity:1;stop-color:#6aacdb"
         offset="1"
         id="stop88" /></linearGradient><clipPath
       clipPathUnits="userSpaceOnUse"
       id="clipPath100"><path
         d="M 0,595.28 H 841.89 V 0 H 0 Z"
         id="path98"
         inkscape:connector-curvature="0" /></clipPath><clipPath
       clipPathUnits="userSpaceOnUse"
       id="clipPath128"><path
         d="m 372.665,372.878 c -0.845,-3.921 -1.636,-7.786 -2.81,-11.732 v 0 c -1.023,-3.437 -4.343,-9.845 -3.226,-13.426 v 0 c 1.403,-4.487 6.269,-6.567 7.724,-11.718 v 0 c 1.39,-4.915 2.616,-7.922 6.105,-12.17 v 0 c 7.903,-9.623 13.479,-8.506 25.2,-8.506 v 0 c 7.859,0 18.357,-2.533 25.631,-0.99 v 0 c -8.643,7.601 -17.732,14.326 -24.946,23.367 v 0 c -4.44,5.564 -9.433,10.313 -13.564,16.053 v 0 c -2.992,4.158 -9.145,13.963 -13.341,15.669 v 0 c 0.493,-1.657 0.409,-3.417 0.517,-5.317 v 0 c -1.495,3.711 -3.623,7.17 -4.497,11.005 v 0 z"
         id="path126"
         inkscape:connector-curvature="0" /></clipPath><linearGradient
       x1="0"
       y1="0"
       x2="1"
       y2="0"
       gradientUnits="userSpaceOnUse"
       gradientTransform="matrix(64.886719,0,0,-64.886719,366.40234,344.47559)"
       spreadMethod="pad"
       id="linearGradient138"><stop
         style="stop-opacity:1;stop-color:#efffff"
         offset="0"
         id="stop134" /><stop
         style="stop-opacity:1;stop-color:#6aa7e3"
         offset="1"
         id="stop136" /></linearGradient><clipPath
       clipPathUnits="userSpaceOnUse"
       id="clipPath148"><path
         d="m 244.42,396.317 c -7.135,-8.151 -12.727,-17.788 -20.384,-25.116 v 0 c -8.586,-8.216 -17.445,-15.876 -25.673,-24.709 v 0 c -5.865,-6.295 -12.8,-15.642 -21.821,-10.929 v 0 c -3.97,2.076 -6.68,5.183 -11.145,6.737 v 0 c -4.78,1.661 -7.641,1.607 -10.493,6.12 v 0 c -3.363,5.321 -4.256,11.922 -7.849,17.221 v 0 c -2.841,4.189 -6.569,7.72 -9.093,12.294 v 0 c -3.79,6.869 -2.591,18.931 -8.773,23.911 v 0 c -4.539,-9.211 -8.73,-18.74 -13.548,-27.973 v 0 c -2.221,-4.257 -2.032,-8.894 -3.929,-12.742 v 0 c -1.558,-3.16 -6.022,-4.56 -9.062,-6.692 v 0 C 95.239,349.241 90.392,340.94 84.209,334.462 v 0 C 78.58,328.564 75.375,323.01 73.174,315.326 v 0 l 256.466,-1.117 c 0.559,4.469 21.792,42.465 21.792,42.465 v 0 c -6.75,6.411 -17.04,11.879 -24.572,18.019 v 0 c -7.806,6.364 -15.391,13.807 -21.678,21.777 v 0 c -5.51,6.984 -6.124,17.085 -10.322,25.019 v 0 c -4.474,8.454 -9.964,16.76 -15.071,24.588 v 0 c -1.051,1.611 -1.971,3.18 -3.23,4.547 v 0 C 264.72,433.211 258.637,412.56 244.42,396.317"
         id="path146"
         inkscape:connector-curvature="0" /></clipPath><linearGradient
       x1="0"
       y1="0"
       x2="1"
       y2="0"
       gradientUnits="userSpaceOnUse"
       gradientTransform="matrix(-10.057015,-150.85571,-150.85571,10.057015,220.04736,452.16699)"
       spreadMethod="pad"
       id="linearGradient158"><stop
         style="stop-opacity:1;stop-color:#efffff"
         offset="0"
         id="stop154" /><stop
         style="stop-opacity:1;stop-color:#6aa7e3"
         offset="1"
         id="stop156" /></linearGradient><clipPath
       clipPathUnits="userSpaceOnUse"
       id="clipPath168"><path
         d="M 0,595.28 H 841.89 V 0 H 0 Z"
         id="path166"
         inkscape:connector-curvature="0" /></clipPath><clipPath
       clipPathUnits="userSpaceOnUse"
       id="clipPath188"><path
         d="m 360.526,368.812 c -3.761,-5.021 -8.582,-8.889 -12.6,-13.673 v 0 C 343.358,349.699 342.804,342.36 339,336 v 0 c -3.792,-6.34 -7.503,-16.05 -12.153,-21.232 v 0 l 0.559,-1.677 c 10.537,0 66.957,0.605 77.107,1.118 v 0 c -2.307,4.33 -16.972,8.359 -19.138,12.711 v 0 c -1.318,2.65 -3.671,5.058 -4.745,7.963 v 0 c -1.08,2.914 -0.602,5.519 -1.387,8.381 v 0 c -1.614,5.889 -6.509,7.721 -6.578,14.527 v 0 c -0.059,5.626 5.372,13.122 2.806,18.381 v 0 c -1.016,-0.845 -1.616,-2.325 -2.026,-3.923 v 0 c 0.263,4.393 -0.967,9.18 -2.612,12.879 v 0 c -3.925,-3.319 -6.848,-11.696 -10.307,-16.316"
         id="path186"
         inkscape:connector-curvature="0" /></clipPath><linearGradient
       x1="0"
       y1="0"
       x2="1"
       y2="0"
       gradientUnits="userSpaceOnUse"
       gradientTransform="matrix(77.666504,0,0,-77.666504,326.84668,349.10937)"
       spreadMethod="pad"
       id="linearGradient198"><stop
         style="stop-opacity:1;stop-color:#e2ecf1"
         offset="0"
         id="stop194" /><stop
         style="stop-opacity:1;stop-color:#90cfdb"
         offset="1"
         id="stop196" /></linearGradient><clipPath
       clipPathUnits="userSpaceOnUse"
       id="clipPath208"><path
         d="M 0,595.28 H 841.89 V 0 H 0 Z"
         id="path206"
         inkscape:connector-curvature="0" /></clipPath><clipPath
       clipPathUnits="userSpaceOnUse"
       id="clipPath220"><path
         d="m 593.658,199.344 c -6.071,-6.069 -12.436,-12.332 -18.724,-17.852 v 0 c -5.442,-4.78 -12.403,-7.281 -17.611,-11.741 v 0 c 5.555,-0.164 10.564,3.45 15.823,3.952 v 0 c -4.207,-6.753 -14.675,-11.32 -21,-15.808 v 0 C 543.875,152.028 536.29,145.597 528.34,139.58 v 0 c -6.491,-4.914 -12.94,-8.662 -18.977,-14.044 v 0 c -4.89,-4.358 -15.767,-10.224 -17.532,-16.235 v 0 c 10.75,-1.625 23.183,3.015 33.721,5.169 v 0 c 9.658,1.971 19.335,1.511 29.149,0.64 v 0 c 8.336,-0.742 16.36,-3.105 24.679,-3.404 v 0 c 4.569,-0.165 8.551,1.655 12.77,1.699 v 0 c 2.239,0.022 4.319,-0.407 6.387,-0.837 v 0 c 2.573,-0.534 5.128,-1.069 7.949,-0.733 v 0 c 0.838,17.893 -0.814,35.338 0.98,53.442 v 0 c 1.417,14.302 9.335,25.02 13.829,38.108 v 0 c -3.839,-3.796 -8.251,-7.229 -13.721,-7.274 v 0 c 2.112,12.027 15.809,25.082 27.125,29.636 v 0 l 2.553,3.406 c -16.56,-0.126 -32.868,-19.089 -43.594,-29.809 m 27.674,4.148 c -0.012,-0.036 -0.024,-0.071 -0.037,-0.107 v 0 c 0.027,0.026 0.054,0.053 0.081,0.08 v 0 c 0.139,0.173 0.203,0.26 0.191,0.26 v 0 c -0.011,0 -0.089,-0.078 -0.235,-0.233"
         id="path218"
         inkscape:connector-curvature="0" /></clipPath><linearGradient
       x1="0"
       y1="0"
       x2="1"
       y2="0"
       gradientUnits="userSpaceOnUse"
       gradientTransform="matrix(-44.995285,-124.60239,-124.60239,44.995285,593.26758,232.73437)"
       spreadMethod="pad"
       id="linearGradient230"><stop
         style="stop-opacity:1;stop-color:#efffff"
         offset="0"
         id="stop226" /><stop
         style="stop-opacity:1;stop-color:#6aa7e3"
         offset="1"
         id="stop228" /></linearGradient><clipPath
       clipPathUnits="userSpaceOnUse"
       id="clipPath240"><path
         d="m 669.154,238.269 c 0.452,0.116 0.883,0.199 1.289,0.245 v 0 l -1.701,1.7 c 0.081,-0.678 0.221,-1.325 0.412,-1.945 m -23.199,-14.184 c -6.55,-4.497 -15.171,-10.05 -20.739,-15.337 v 0 c 7.081,-6.168 6.552,-6.548 2.698,-14.491 v 0 c -3.353,-6.91 -3.911,-13.51 -5.791,-21.294 v 0 c -3.289,-13.616 -11.042,-27.808 -11.249,-42.351 v 0 c 0.089,3.332 1.113,6.439 3.254,8.921 v 0 c 0.385,-6.821 -1.827,-17.452 -6.364,-22.777 v 0 c 6.674,2.072 14.337,20.078 17.365,26.564 v 0 c 5.74,12.295 9.718,25.707 15.569,37.976 v 0 c 0.793,-11.079 -5.87,-21.785 -4.128,-32.904 v 0 c 2.596,1.809 3.948,5.138 4.981,8.118 v 0 c -0.412,-8.462 1.242,-16.708 0.828,-25.232 v 0 c -0.34,-6.996 -3.368,-14.243 -2.404,-21.207 v 0 c 6.193,6.548 5.261,23.812 6.638,32.909 v 0 c 1.522,10.051 1.931,25.641 8.509,33.953 v 0 c 2.966,-12.806 1.919,-26.503 2.558,-39.733 v 0 c 0.421,-8.669 -1.416,-22.429 2.741,-30.512 v 0 c 4.156,5.564 9.85,5.171 15.672,4.779 v 0 c 4.14,-0.279 8.346,-0.557 12.112,1.307 v 0 c -7.147,6.67 -3.174,14.693 0.774,22.144 v 0 c 3.088,5.83 11.352,11.841 13.631,16.96 v 0 c 3.262,7.314 -3.515,19.066 -4.953,26.211 v 0 c -1.664,8.271 -0.967,17.289 -4.853,24.611 v 0 c -2.339,-4.443 -4.801,-10.361 -8.532,-13.462 v 0 c -6.875,12.45 0.21,17.267 -1.065,28.849 v 0 c -0.965,8.752 -11.624,12.307 -14.053,20.182 v 0 c -6.628,-1.696 -17.847,-10.507 -23.199,-14.184 m -35.085,-94.25 c -10e-4,0.259 10e-4,0.518 0.004,0.777 v 0 c -0.007,-0.258 -0.008,-0.517 -0.004,-0.777"
         id="path238"
         inkscape:connector-curvature="0" /></clipPath><linearGradient
       x1="0"
       y1="0"
       x2="1"
       y2="0"
       gradientUnits="userSpaceOnUse"
       gradientTransform="matrix(-28.720655,-141.69414,-141.69414,28.720655,678.24414,250.45215)"
       spreadMethod="pad"
       id="linearGradient250"><stop
         style="stop-opacity:1;stop-color:#efffff"
         offset="0"
         id="stop246" /><stop
         style="stop-opacity:1;stop-color:#6aa7e3"
         offset="1"
         id="stop248" /></linearGradient><clipPath
       clipPathUnits="userSpaceOnUse"
       id="clipPath260"><path
         d="m 701.889,178.044 c 1.354,-6.737 2.98,-10.919 6.026,-17 v 0 c 3.23,-6.45 4.157,-9.077 -1.086,-15.168 v 0 c -0.756,1.198 -2.505,2.181 -3.22,3.806 v 0 c -1.111,-6.659 -4.13,-10.906 -7.445,-16.886 v 0 c -3.838,-6.925 -4.659,-13.736 -6.904,-20.798 v 0 c 15.285,4.484 34.523,-1.251 49.267,-2.842 v 0 c 17.246,-1.863 33.291,0.982 50.101,1.828 v 0 c -1.715,7.159 -12.578,10.852 -17.57,16.021 v 0 c -5.516,5.712 -3.992,12.164 -8.016,17.723 v 0 c -3.883,5.361 -9.691,4.887 -13.687,11.232 v 0 c -4.079,6.477 -7.06,13.775 -10.805,20.426 v 0 c -6.218,11.046 -14.187,15.933 -23.662,23.167 v 0 c -7.987,6.097 -14.759,14.315 -22.148,21.019 v 0 c -1.084,-14.968 6.331,-28.517 9.149,-42.528 m -13.574,-66.338 h 0.852 c 0.031,0.098 0.062,0.195 0.093,0.292 v 0 c -0.317,-0.093 -0.631,-0.19 -0.945,-0.292"
         id="path258"
         inkscape:connector-curvature="0" /></clipPath><linearGradient
       x1="0"
       y1="0"
       x2="1"
       y2="0"
       gradientUnits="userSpaceOnUse"
       gradientTransform="matrix(76.590317,-122.54424,-122.54424,-76.590317,680.28516,204.87793)"
       spreadMethod="pad"
       id="linearGradient270"><stop
         style="stop-opacity:1;stop-color:#efffff"
         offset="0"
         id="stop266" /><stop
         style="stop-opacity:1;stop-color:#6aa7e3"
         offset="1"
         id="stop268" /></linearGradient></defs><sodipodi:namedview
     pagecolor="#ffffff"
     bordercolor="#666666"
     borderopacity="1"
     objecttolerance="10"
     gridtolerance="10"
     guidetolerance="10"
     inkscape:pageopacity="0"
     inkscape:pageshadow="2"
     inkscape:window-width="1920"
     inkscape:window-height="1019"
     id="namedview4"
     showgrid="false"
     inkscape:zoom="0.29733907"
     inkscape:cx="561.26001"
     inkscape:cy="390.127"
     inkscape:window-x="0"
     inkscape:window-y="0"
     inkscape:window-maximized="1"
     inkscape:current-layer="g10" /><g
     id="g10"
     inkscape:groupmode="layer"
     inkscape:label="Mountains"
     transform="matrix(1.3333333,0,0,-1.3333333,0,793.70667)"><g
       id="g12"
       transform="translate(105.93966,-108.46204)"><g
         id="g14"
         clip-path="url(#clipPath18)"><g
           id="g20"><g
             id="g22"><path
               d="m 300.808,168.143 c 2.946,-4.874 3.729,-10.606 6.373,-15.067 v 0 c 2.884,-4.865 6.174,-9.673 9.106,-14.751 v 0 c 5.28,-9.143 14.645,-14.553 21.625,-22.313 v 0 c 1.669,-1.856 3.039,-4.681 4.58,-6.596 v 0 c 19.007,-1.11 43.058,0.128 61.705,0.617 v 0 c -2.191,6.073 -22.606,12.006 -28.161,16.594 v 0 c -6.279,5.185 -7.238,12.1 -12.087,18.438 v 0 c -2.657,3.472 -5.079,5.776 -6.686,9.667 v 0 c -1.543,3.736 -1.536,6.913 -4.657,10.241 v 0 c -4.182,4.459 -11.319,9.694 -16.406,13.339 v 0 c -0.517,-2.155 -2.287,-10.401 -5.034,-10.238 v 0 c -3.381,0.202 -3.162,8.502 -4.594,10.353 v 0 c -2.175,2.808 -5.395,2.993 -7.881,5.526 v 0 c -2.204,2.244 -4.169,6.627 -5.999,9.296 v 0 c -0.055,-0.834 -0.1,-1.783 -0.24,-2.643 v 0 c -5.242,-0.304 -5.048,5.489 -7.177,8.822 v 0 c -2.087,3.269 -4.922,6.083 -7.034,9.688 v 0 c -4.37,7.461 -7.808,14.121 -14.734,18.626 v 0 l -0.745,0.746 c -4.484,-19.915 7.383,-42.71 18.046,-60.345"
               style="fill:url(#linearGradient30);stroke:none"
               id="path32"
               inkscape:connector-curvature="0" /></g></g></g></g><g
       id="g34"
       transform="translate(105.93966,-108.46204)"><g
         id="g36"
         clip-path="url(#clipPath40)"><g
           id="g42"><g
             id="g44"><path
               d="m 208.245,171.287 c -10.43,-5.255 -22.124,-8.575 -32.76,-13.761 v 0 c -9.741,-4.748 -17.138,-11.024 -27.568,-15.272 v 0 c -10.149,-4.133 -20.778,-6.855 -30.36,-12.292 v 0 c -9.243,-5.245 -22.878,-10.592 -29.986,-18.44 v 0 l -0.744,-2.236 c 6.805,2.509 16.498,-0.372 23.857,-0.727 v 0 c 8.031,-0.386 16.86,-0.762 25.313,-0.762 v 0 c 17.55,0 34.8,2.742 52.133,0.166 v 0 c 13.509,-2.009 51.558,-1.232 87.135,-0.455 v 0 c 30.058,0.656 58.351,1.312 68.587,0.289 v 0 c 0.575,5.422 -18.736,19.876 -22.165,23.859 v 0 c -6.744,7.83 -14.257,18.774 -18.249,28.269 v 0 c -2.739,6.517 -4.313,8.55 -8.94,14.156 v 0 c -3.463,4.195 -6.134,10.3 -8.59,15.103 v 0 c -2.699,5.283 -6.465,9.757 -8.543,15.462 v 0 c -2.311,6.344 0.49,12.261 -0.714,18.549 v 0 c -24.557,-14.248 -42.449,-38.828 -68.406,-51.908 m 135.502,-63.348 c -0.009,0.011 -0.007,0.009 0,0 m 0,0 c 0.004,-0.005 0.009,-0.013 0.016,-0.022 v 0 c -0.007,0.01 -0.013,0.017 -0.016,0.022 m 0.019,-0.027 c 0.002,-0.002 0.003,-0.004 0.005,-0.006 v 0 c -0.002,0.002 -0.003,0.004 -0.005,0.006 m 0.007,-0.008 c 0.002,-0.003 0.004,-0.006 0.007,-0.009 v 0 c -0.003,0.003 -0.005,0.006 -0.007,0.009 m 0.009,-0.013 c 0.002,-0.003 0.005,-0.006 0.007,-0.009 v 0 c -0.002,0.003 -0.005,0.006 -0.007,0.009 m 0.01,-0.013 c 0.009,-0.013 0.019,-0.026 0.028,-0.038 v 0 c -0.011,0.015 -0.02,0.027 -0.028,0.038 m 0.034,-0.046 c 0.004,-0.006 0.008,-0.011 0.011,-0.015 v 0 c -0.004,0.005 -0.007,0.01 -0.011,0.015"
               style="fill:url(#linearGradient52);stroke:none"
               id="path54"
               inkscape:connector-curvature="0" /></g></g></g></g><g
       id="g56"
       transform="translate(105.93966,-108.46204)"><g
         id="g58"
         clip-path="url(#clipPath62)"><g
           id="g64"
           transform="translate(175.4814,107.0518)"><path
             d="m 0,0 c 0.703,4.486 13.757,13.019 18.441,17.32 6.427,5.901 12.773,11.661 19.535,16.931 14.573,11.358 25.927,25.958 37.866,39.444 0.677,-16.545 -11.553,-29.754 -17.45,-43.946 6.093,1.079 9.978,8.007 14.671,11.706 -0.135,-2.983 -0.938,-5.847 -2.196,-8.372 12.859,10.535 14.84,29.972 23.04,43.386 -3.411,-18.878 -9.167,-38.075 -17.08,-55.476 1.186,0.773 3.645,1.626 4.99,2.753 C 80.038,16.895 76.306,6.074 72.266,0 Z"
             style="fill:#f2f9fd;fill-opacity:1;fill-rule:nonzero;stroke:none"
             id="path66"
             inkscape:connector-curvature="0" /></g><g
           id="g68"
           transform="translate(119.6064,128.6562)"><path
             d="m 0,0 c 3.632,-2.023 -2.049,-14.859 -5.1,-18.51 7.095,3.693 9.634,11.124 12.344,17.705 0.18,-1.085 0.847,-2.387 1.078,-3.567 2.564,1.177 4.793,4.112 7.211,6.383 0.004,-1.046 0.27,-2.327 0.222,-3.386 2.712,0.834 4.819,3.649 8.141,4.281 1.609,-3.065 3.442,-4.383 3.78,-8.022 2.552,0.846 3.705,3.967 5.719,5.802 0.676,-5.435 -0.714,-14.519 -4.225,-18.47 6.668,7.728 9.031,18.454 13.874,26.668 0.177,-1.133 0.555,-1.864 0.858,-2.825 7.864,0.984 14.457,18.337 19.981,23.627 5.206,-10.347 -0.843,-35.151 -6.592,-44.284 10.676,14.828 12.351,31.401 17.974,47.471 0.053,-0.291 0.776,-3.973 0.838,-5.827 1.314,1.811 3.667,3 5.1,4.676 2.522,0.393 5.642,3.473 8.38,2.602 2.301,-0.732 4.896,-5.92 5.16,-8.189 6.362,4.031 9.135,15.059 13.117,21.303 1.899,-5.597 2.123,-10.242 2.552,-16.087 5.016,5.008 7.296,15.176 10.281,21.545 3.808,8.124 7.772,17.267 13.239,24.376 1.316,-3.3 1.904,-7.248 1.827,-10.907 0.423,1.166 1.666,3.307 2.105,4.931 -0.262,-2.306 0.13,-4.665 -0.077,-6.976 2.537,7.561 8.489,18.114 12.852,24.982 6.737,-4.256 7.703,-17.563 11.753,-24.487 5.137,-8.782 8.072,-18.85 13.616,-27.398 10.409,-16.051 20.649,-30.864 33.225,-44.808 -3.465,9.143 -13.736,18.488 -18.719,27.504 -4.902,8.87 -7.793,18.659 -12.273,27.753 -4.133,8.39 -9.134,16.206 -11.939,25.145 -3.26,10.387 -1.102,18.622 -1.769,28.942 -4.223,0.275 -9.154,-7.231 -12.737,-10.132 C 148,88.747 144.196,87.366 140.244,84.765 131.636,79.102 124.124,69.312 116.223,62.414 96.635,45.315 70.27,40.271 49.17,26.242 33.423,15.77 18.263,8.727 0.745,2.795 c -12.583,-4.262 -25.404,-12.534 -34.754,-22.2 12.079,-0.45 21.736,15.204 32.519,18.661"
             style="fill:#f2f9fd;fill-opacity:1;fill-rule:nonzero;stroke:none"
             id="path70"
             inkscape:connector-curvature="0" /></g></g></g><g
       id="g72"
       transform="translate(-92.88624,-321.42334)"><g
         id="g74"
         clip-path="url(#clipPath78)"><g
           id="g80"><g
             id="g82"><path
               d="m 656.895,501.121 c -10e-4,0.9 -0.1,1.834 -0.316,2.805 v 0 c 0.068,-0.81 0.174,-1.756 0.316,-2.805 m -8.138,-14.737 c -4.039,-4.664 -6.418,-12.595 -12.102,-15.499 v 0 c -0.197,1.774 -1.053,3.307 -1.28,5.046 v 0 c -1.165,-1.077 -3.63,-4.01 -4.275,-5.415 v 0 c -1.865,-4.051 1.071,-9.874 -0.446,-14.082 v 0 c -0.911,-2.526 -5.062,-4.583 -6.202,-7.15 v 0 c -1.775,-4.004 -0.607,-11.133 -2.457,-14.363 v 0 c -2.014,-3.516 -7.511,-3.645 -8.776,-5.752 v 0 c -2.397,-3.996 0.449,-8.995 -1.505,-12.965 v 0 c -1.072,-2.178 -6.363,-4.074 -7.964,-6.621 v 0 c -4.373,-6.959 -2.879,-15.699 -6.424,-22.632 v 0 c -2.755,-5.383 -7.39,-12.984 -12.241,-17.93 v 0 c -5.395,-5.502 -10.332,-5.504 -14.309,-13.63 v 0 c -4.137,-8.455 -9.081,-12.137 -13.957,-19.626 v 0 c -2.301,-3.534 -1.627,-7.342 -4.142,-10.576 v 0 c -1.654,-2.127 -6.715,-4.072 -8.966,-6.431 v 0 l -1.117,-4.47 c 0.839,0.36 0.67,0.796 2.213,1.139 v 0 c 15.299,3.416 39.013,3.92 54.805,2.24 v 0 c 8.51,-0.907 16.236,-4.292 25.677,-3.379 v 0 c 8.702,0.842 16.57,4.913 25.703,4.47 v 0 c 17.012,-0.823 32.845,-1.526 50.287,-2.235 v 0 c 4.72,-0.192 9.899,-0.118 15.244,-0.044 v 0 c 13.127,0.181 27.246,0.363 37.978,-3.387 v 0 c -23.767,28.698 -43.731,72.516 -51.044,106.964 v 0 c 0.141,-3.856 -1.202,-3.901 -2.181,-6.443 v 0 c -4.692,3.77 -2.558,8.845 -4.139,13.849 v 0 c -1.739,5.512 -5.528,6.477 -4.967,14.053 v 0 c -12.467,1.146 -13.271,1.403 -16.536,12.519 v 0 c -2.094,7.13 -6.117,14.43 -6.733,21.875 v 0 c -0.971,-0.979 -2.274,-2.032 -3.105,-2.824 v 0 c -4.369,4.549 -7.768,19.612 -8.901,28.036 v 0 c 0.003,-6.285 -4.806,-10.888 -8.138,-14.737"
               style="fill:url(#linearGradient90);stroke:none"
               id="path92"
               inkscape:connector-curvature="0" /></g></g></g></g><g
       id="g94"
       transform="translate(-92.88624,-321.42334)"><g
         id="g96"
         clip-path="url(#clipPath100)"><g
           id="g102"
           transform="translate(596.2344,319.9932)"><path
             d="m 0,0 c 7.364,8.515 7.652,20.386 12.346,29.838 -0.227,-2.741 0.196,-5.532 -0.112,-8.267 2.106,5.273 2.961,10.746 3.576,16.339 16.616,-6.313 27.772,83.403 27.772,94.115 -1.678,-18.327 3.737,-37.148 2.235,-56.002 -0.785,-9.861 -4.856,-18.389 -6.766,-27.971 -1.313,-6.585 2.837,-22.965 5.928,-9.029 0.363,-1.908 2.028,-4.85 2.178,-7.617 0.214,0.338 2.519,3.326 2.008,2.282 0.918,-9.728 0.301,-17.989 9.003,-23.764 0.844,1.691 3.617,3.862 4.105,5.631 3.135,-8.776 5.058,-8.224 12.658,-9.156 1.507,-0.185 5.266,1.74 7.791,1.45 2.255,-0.26 4.908,-3.48 6.65,-3.407 13.691,0.575 0.223,13.503 -3.627,22.133 C 75.945,48.546 75.543,75.702 67.302,97.134 67.94,79.886 77.125,56.997 83.537,41.074 89.872,25.347 103.552,16.3 117.165,6.82 c -0.9,1.655 -1.233,4.75 -1.92,6.199 3.089,-2.128 5.633,-3.469 7.685,-6.426 4.914,2.132 22.295,-10.836 28.712,-13.349 C 124.865,-0.484 99.803,-7.131 71.52,-5.588 57.424,-4.817 47.665,-4.21 34.7,-6.762 19.785,-9.698 9.933,-2.943 -3.353,-2.235"
             style="fill:#f2f9ff;fill-opacity:1;fill-rule:nonzero;stroke:none"
             id="path104"
             inkscape:connector-curvature="0" /></g><g
           id="g106"
           transform="translate(556.0039,332.2856)"><path
             d="m 0,0 c -0.455,-3.632 -0.372,-6.583 1.954,-8.825 2.877,5.317 3.29,11.741 3.798,17.601 3.334,1.878 1.979,1.591 4.496,4.47 4.472,0.862 5.496,5.677 6.8,10.107 8.988,-5.496 6.412,-20.646 6.424,-30.221 6.764,11.827 -1.889,34.074 12.316,45.571 -0.121,-0.568 -0.057,-1.123 0.191,-1.662 6.658,7.012 15.689,33.947 14.532,43.305 4.245,-5.84 4.005,-19.066 2.016,-26.372 0.333,7.827 1.335,17.932 3.41,25.308 1.945,6.919 6.961,14.422 8.603,21.204 0.497,-1.449 1.204,-2.882 1.673,-4.291 0.417,1.413 2.433,4.288 2.828,6.282 1.679,-4.943 3.037,-9.693 3.602,-14.974 2.967,13.781 -1.389,27.294 5.863,39.67 6.104,10.42 15.818,12.785 16.482,26.705 -1.138,-15.276 3.01,-33.54 5.614,-48.495 -2.316,12.954 -2.898,28.888 -2.009,42.043 2.689,-4.281 3.019,-12.586 9.611,-12.368 0.544,-0.246 0.239,-2.22 1.005,-2.804 0.988,0.651 1.48,1.409 2.541,1.954 3.768,-3.068 3.23,-6.73 4.72,-11.033 1.31,-3.79 4.035,-7.817 5.09,-10.559 3.439,-8.943 3.593,-17.858 5.893,-27.347 -0.311,5.405 -0.274,10.958 -1.175,16.424 -1.094,6.646 -2.845,8.535 -4.745,14.253 -2.99,9.003 -8.255,17.706 -10.067,26.926 -13.509,-10.487 -6.041,14.304 -16.504,12.537 -8.617,-1.455 -0.906,-20.374 -15.454,-17.003 -0.131,-2.431 -1.536,-3.93 -1.474,-6.349 -10.14,-3.774 -7.316,-18.099 -7.826,-26.816 C 64.712,104.953 59.335,102.526 59.037,96.297 50.922,91.784 60.012,79.449 44.895,80.266 36.961,64.421 42.743,47.776 27.104,34.607 17.182,26.25 -0.181,15.804 -1.117,-1.118"
             style="fill:#f2f9fd;fill-opacity:1;fill-rule:nonzero;stroke:none"
             id="path108"
             inkscape:connector-curvature="0" /></g><g
           id="g110"
           transform="translate(665.5195,433.979)"><path
             d="m 0,0 c 6.423,-15.474 7.885,-38.094 17.628,-52.438 0.005,2.409 0.622,5.247 0.501,7.647 1.824,-4.858 6.797,-11.022 9.804,-15.725 0.31,0.339 2.065,2.452 1.092,1.425 8.277,-16.969 26.237,-27.378 38.698,-41.592 -10.366,12.989 -23.024,24.808 -26.315,41.459 -1.883,9.538 -1.291,18.306 -4.779,27.66 -2.822,7.564 -3.641,20.689 -7.881,26.698 -2.29,-9.125 0.115,-17.961 2.822,-26.118 2.865,-8.627 2.006,-15.773 4.182,-25.058 -0.322,1.289 -3.47,5.147 -5.415,7.651 0.075,-1.509 -0.185,-3.306 -0.111,-4.916 -2.219,3.55 -4.052,6.936 -5.699,10.446 0.066,-1.672 -0.251,-3.523 -0.165,-5.103 C 12.877,-33.971 10.071,-14.155 1.117,0"
             style="fill:#f2f9fd;fill-opacity:1;fill-rule:nonzero;stroke:none"
             id="path112"
             inkscape:connector-curvature="0" /></g><g
           id="g114"
           transform="translate(568.2969,345.6953)"><path
             d="M 0,0 C 0,-6.604 -0.78,-12.028 -2.888,-18.253 -4.129,-21.916 -6.76,-25.838 -7.395,-29.369 2.607,-22.402 4.098,-3.304 4.098,7.71 3.961,3.7 4.445,-0.702 5.299,-4.439 7.297,-1.381 5.576,3.958 7.45,7.318 9.666,1.543 9.256,-7.122 8.939,-13.41 c -0.281,-5.582 -1.201,-9.125 -3.37,-14.026 4.06,6.745 5.206,17.369 5.606,25.201 0.223,4.387 -0.029,8.214 1.043,12.293 0.437,1.665 4.671,11.98 6.313,5.991 0.529,1.113 0.852,2.372 0.921,3.582 0.532,-1.633 1.318,-3.351 1.863,-5.064 1.372,1.707 0.637,4.739 1.687,6.644 1.703,-7.016 2.553,-16.272 1.499,-23.463 -0.412,-2.803 0.016,-7.831 -1.054,-10.3 0.353,7.216 2.627,13.521 2.627,21.12 0,3.601 0.005,7.203 0,10.804 -0.004,4.168 1.469,5.664 3.064,9.282 5.677,-5.223 2.897,-18.277 3.269,-25.301 0.461,-8.682 0.904,-17.442 2.319,-26.054 1.464,5.014 -0.545,11.467 -0.83,16.75 -0.251,4.683 -0.075,9.533 0.385,14.137 0.705,7.075 -0.043,14.19 -0.675,21.243 -0.252,2.802 -2.665,13.508 0.963,14.477 0.674,-2.174 1.044,-4.586 2.038,-6.611 0.157,-0.024 0.25,0.04 0.279,0.19 0.397,-1.995 0.454,-4.286 1.212,-6.089 0.06,1.027 0.43,2.405 0.325,3.562 4.57,-0.519 4.903,-15.469 5.614,-19.282 2.442,6.581 -0.591,15.989 -1.489,22.693 -0.865,6.452 0.818,13.715 1.415,20.134 0.266,2.857 -1.436,8.275 -0.546,11.006 1.508,4.627 4.21,0.289 6.042,-2.831 3.193,-5.435 2.729,-11.787 4.18,-18.139 -0.183,1.823 0.233,3.58 0.373,5.361 -0.217,-1.921 1.144,-2.512 1.52,-3.965 0.456,-1.771 0.322,-3.755 0.343,-5.607 0.029,-2.549 -0.952,-8.341 0.673,-10.044 3.116,11.416 -1.249,24.808 -3.28,35.747 -0.515,2.774 1.023,14.318 -3.652,10.801 -2.754,-2.072 -3.694,-10.159 -4.227,-13.344 -1.482,-0.426 -2.673,-1.364 -3.688,-2.542 0.367,4.935 -3.657,-0.33 -4.359,-2.003 -1.209,-2.882 -2.195,-5.93 -3.083,-8.929 C 32.247,47.217 29.657,40.886 27.957,34.252 26.566,28.83 21.052,25.653 17.61,21.606 15.592,19.233 13.12,16.795 11.081,14.539 8.776,11.987 6.746,12.819 4.189,11.083 0.635,8.667 1.239,3.431 -1.118,1.118"
             style="fill:#f2f9fd;fill-opacity:1;fill-rule:nonzero;stroke:none"
             id="path116"
             inkscape:connector-curvature="0" /></g><g
           id="g118"
           transform="translate(651.3643,417.5889)"><path
             d="m 0,0 c 0.049,-7.979 0.393,-15.374 -1.957,-23.178 -2.74,-9.104 -3.74,-18.755 -2.068,-28.203 1.278,1.798 1.815,4.754 2.432,6.941 1.587,-4.31 2.277,-9.473 3.547,-14.035 1.621,-5.822 4.331,-13.724 7.657,-18.611 0.586,8.91 -2.665,18.671 -4.312,27.451 -0.535,2.857 -1.172,7.353 -0.838,10.24 0.316,2.726 1.134,2.972 2.533,5.095 0.454,-2.41 2.318,-8.109 5.596,-6.788 1.1,-3.422 1.914,-7.136 4.105,-9.932 -0.384,7.331 -4.51,15.353 -6.255,22.618 -1.567,6.526 -2.606,13.117 -3.653,19.751 -1.058,6.714 -1.516,14.514 -1.22,21.317 0.184,4.21 1.942,8.587 1.901,12.569 C 1.736,9.18 5.666,-7.641 4.787,-24.154 c -0.899,0.508 -1.72,0.862 -2.076,2.148 -0.329,-0.966 -0.769,-1.712 -0.848,-2.755 -0.005,5.392 2.792,21.136 -2.235,24.016"
             style="fill:#f2f9fd;fill-opacity:1;fill-rule:nonzero;stroke:none"
             id="path120"
             inkscape:connector-curvature="0" /></g></g></g><g
       id="g122"
       transform="translate(-115.50334,-314.50004)"><g
         id="g124"
         clip-path="url(#clipPath128)"><g
           id="g130"><g
             id="g132"><path
               d="m 372.665,372.878 c -0.845,-3.921 -1.636,-7.786 -2.81,-11.732 v 0 c -1.023,-3.437 -4.343,-9.845 -3.226,-13.426 v 0 c 1.403,-4.487 6.269,-6.567 7.724,-11.718 v 0 c 1.39,-4.915 2.616,-7.922 6.105,-12.17 v 0 c 7.903,-9.623 13.479,-8.506 25.2,-8.506 v 0 c 7.859,0 18.357,-2.533 25.631,-0.99 v 0 c -8.643,7.601 -17.732,14.326 -24.946,23.367 v 0 c -4.44,5.564 -9.433,10.313 -13.564,16.053 v 0 c -2.992,4.158 -9.145,13.963 -13.341,15.669 v 0 c 0.493,-1.657 0.409,-3.417 0.517,-5.317 v 0 c -1.495,3.711 -3.623,7.17 -4.497,11.005 v 0 z"
               style="fill:url(#linearGradient138);stroke:none"
               id="path140"
               inkscape:connector-curvature="0" /></g></g></g></g><g
       id="g142"
       transform="translate(-115.50334,-314.50004)"><g
         id="g144"
         clip-path="url(#clipPath148)"><g
           id="g150"><g
             id="g152"><path
               d="m 244.42,396.317 c -7.135,-8.151 -12.727,-17.788 -20.384,-25.116 v 0 c -8.586,-8.216 -17.445,-15.876 -25.673,-24.709 v 0 c -5.865,-6.295 -12.8,-15.642 -21.821,-10.929 v 0 c -3.97,2.076 -6.68,5.183 -11.145,6.737 v 0 c -4.78,1.661 -7.641,1.607 -10.493,6.12 v 0 c -3.363,5.321 -4.256,11.922 -7.849,17.221 v 0 c -2.841,4.189 -6.569,7.72 -9.093,12.294 v 0 c -3.79,6.869 -2.591,18.931 -8.773,23.911 v 0 c -4.539,-9.211 -8.73,-18.74 -13.548,-27.973 v 0 c -2.221,-4.257 -2.032,-8.894 -3.929,-12.742 v 0 c -1.558,-3.16 -6.022,-4.56 -9.062,-6.692 v 0 C 95.239,349.241 90.392,340.94 84.209,334.462 v 0 C 78.58,328.564 75.375,323.01 73.174,315.326 v 0 l 256.466,-1.117 c 0.559,4.469 21.792,42.465 21.792,42.465 v 0 c -6.75,6.411 -17.04,11.879 -24.572,18.019 v 0 c -7.806,6.364 -15.391,13.807 -21.678,21.777 v 0 c -5.51,6.984 -6.124,17.085 -10.322,25.019 v 0 c -4.474,8.454 -9.964,16.76 -15.071,24.588 v 0 c -1.051,1.611 -1.971,3.18 -3.23,4.547 v 0 C 264.72,433.211 258.637,412.56 244.42,396.317"
               style="fill:url(#linearGradient158);stroke:none"
               id="path160"
               inkscape:connector-curvature="0" /></g></g></g></g><g
       id="g162"
       transform="translate(-115.50334,-314.50004)"><g
         id="g164"
         clip-path="url(#clipPath168)"><g
           id="g170"
           transform="translate(102.7871,314.3262)"><path
             d="m 0,0 c 5.441,1.907 9.538,15.327 11.595,20.674 2.514,6.541 5.505,14.783 7.958,20.197 -0.374,-4.679 -1.407,-10.117 -2.692,-14.565 4.96,5.743 5.306,18.272 6.019,25.687 0.723,7.507 1.146,15.293 1.146,23.297 0.046,-15.955 1.945,-31.878 1.118,-47.926 -0.227,-4.389 -3.047,-26.455 2.139,-26.717 0.193,1.471 1.387,3.275 1.617,4.337 0.79,-3.377 1.745,-1.582 3.505,-2.188 -1.271,0.438 6.58,-0.226 4.319,-0.602 4.105,0.684 4.61,2.496 6.439,7.181 2.595,6.644 5.263,13.595 8.269,20.042 C 49.463,19.777 47.045,9.942 45.917,0.724 52.332,8.393 55.894,18.816 65.847,22.851 62.65,15.548 51.07,11.31 52.048,1.76 c 8.914,-0.451 23.126,-5.036 30.661,0.895 8.128,6.4 12.232,19.81 23.272,22.388 -6.663,-6.2 -13.723,-13.608 -17.071,-22.148 1.288,0.567 3.545,0.951 4.863,1.503 0.07,-0.661 0.202,-1.433 0.194,-2.091 7.167,2.656 12.774,18.484 16.261,25.072 2.491,4.709 4.885,9.703 6.985,14.528 2.183,5.012 2.584,11.546 5.181,16.034 0.262,-3.795 -1.132,-7.168 -1.728,-10.808 2.675,3.273 2.663,7.988 4.355,11.66 1.581,3.43 4.445,6.362 5.711,9.751 1.951,-5.315 -3.002,-10.779 -2.107,-16.411 2.015,3.16 0.541,7.005 3.129,9.831 0.356,-5.424 -0.721,-9.846 -1.13,-14.904 -0.404,-4.989 0.417,-10.414 0.124,-15.77 -0.57,-10.437 -4.25,-20.478 -3.911,-30.731 z"
             style="fill:#ffffff;fill-opacity:1;fill-rule:nonzero;stroke:none"
             id="path172"
             inkscape:connector-curvature="0" /></g><g
           id="g174"
           transform="translate(277.1177,447.3096)"><path
             d="m 0,0 c -7.449,-10.343 -8.996,-23.13 -13.969,-34.669 -4.115,-9.551 -12.465,-19.614 -13.899,-30.632 4.705,1.72 9.176,12.394 11.664,17.248 3.063,5.974 5.884,12.22 8.253,18.272 -1.664,-15.074 -3.566,-29.33 -2.568,-45.02 0.553,0.193 1.483,0.229 2.04,0.415 0.439,-6.602 0.081,-13.394 0.098,-20.043 0.016,-6.441 -1.933,-8.644 -6.284,-13.286 -7.378,-7.873 -17.393,-15.646 -23.273,-24.594 11.317,0.315 24.727,18.561 32.825,25.418 0.736,-7.994 1.025,-16.657 0.058,-24.808 6.178,10.459 5.8,26.674 8.336,38.207 -3.614,-2.486 -5.656,-6.641 -9.9,-8.143 0.969,11.52 2.509,21.227 -0.057,32.842 -0.389,0.035 -0.744,-0.056 -1.064,-0.273 -1.131,22.949 1.296,48.665 8.858,68.507"
             style="fill:#ffffff;fill-opacity:1;fill-rule:nonzero;stroke:none"
             id="path176"
             inkscape:connector-curvature="0" /></g><g
           id="g178"
           transform="translate(307.2905,390.3164)"><path
             d="m 0,0 c -2.434,-4.194 -3.09,-10.766 -6.285,-14.541 -2.522,-2.979 -5.008,-2.628 -6.538,-6.663 -3.325,-8.772 -3.515,-20.998 -4.972,-30.032 6.749,7.914 3.399,22.466 10.544,30.365 0.084,-1.024 0.617,-2 0.628,-3.11 2.9,1.705 2.183,5.794 4.835,7.719 -0.085,-1.14 0.582,-2.363 0.643,-3.252 0.416,0.303 1.16,0.689 1.59,1.033 -0.224,-4.925 1.63,-10.812 2.333,-15.744 0.745,-5.23 2.034,-11.507 3.803,-16.029 0.748,13.072 -0.607,26.343 0.221,39.469 1.674,-1.633 3.257,-3.744 4.809,-5.35 -0.256,-0.079 0.719,1.186 0.668,1.131 0.47,-0.41 0.979,-1.331 1.594,-1.596 0.186,0.37 -0.146,1.092 0.166,1.32 3.371,-1.635 6.516,-3.839 9.914,-5.336 -1.098,5.154 -9.766,9.082 -13.364,12.931 C 7.716,-4.612 5.869,-1.083 1.676,0"
             style="fill:#ffffff;fill-opacity:1;fill-rule:nonzero;stroke:none"
             id="path180"
             inkscape:connector-curvature="0" /></g></g></g><g
       id="g182"
       transform="translate(-115.50334,-314.50004)"><g
         id="g184"
         clip-path="url(#clipPath188)"><g
           id="g190"><g
             id="g192"><path
               d="m 360.526,368.812 c -3.761,-5.021 -8.582,-8.889 -12.6,-13.673 v 0 C 343.358,349.699 342.804,342.36 339,336 v 0 c -3.792,-6.34 -7.503,-16.05 -12.153,-21.232 v 0 l 0.559,-1.677 c 10.537,0 66.957,0.605 77.107,1.118 v 0 c -2.307,4.33 -16.972,8.359 -19.138,12.711 v 0 c -1.318,2.65 -3.671,5.058 -4.745,7.963 v 0 c -1.08,2.914 -0.602,5.519 -1.387,8.381 v 0 c -1.614,5.889 -6.509,7.721 -6.578,14.527 v 0 c -0.059,5.626 5.372,13.122 2.806,18.381 v 0 c -1.016,-0.845 -1.616,-2.325 -2.026,-3.923 v 0 c 0.263,4.393 -0.967,9.18 -2.612,12.879 v 0 c -3.925,-3.319 -6.848,-11.696 -10.307,-16.316"
               style="fill:url(#linearGradient198);stroke:none"
               id="path200"
               inkscape:connector-curvature="0" /></g></g></g></g><g
       id="g202"
       transform="translate(75.671185,-116.02916)"><g
         id="g204"
         clip-path="url(#clipPath208)"><g
           id="g210"
           transform="translate(700.2295,203.6201)"><path
             d="m 0,0 c -2.826,4.168 -6.586,14.2 -10.36,17.68 -4.081,3.762 -10.3,4.132 -14.96,8.914 -2.588,2.655 -6.726,10.048 -10.382,10.891 -6.011,1.38 -15.634,-9.871 -18.592,-13.591 0.428,1.284 0.202,3.565 0.549,4.911 -11.366,-1.837 -18.767,-10.34 -26.891,-17.973 -7.356,-6.91 -27.311,-11.906 -24.765,-25.172 6.665,-0.553 12.164,1.814 18.463,2.294 0.015,-10.005 -6.883,-22.181 -9.255,-32.251 -1.791,-7.612 -2.409,-13.439 -1.63,-21.234 1.642,-16.451 -1.098,-29.311 19.527,-28.085 14.246,0.845 27.673,0.693 41.704,0.002 7.83,-0.386 16.338,-1.142 23.804,-0.189 5.401,0.689 25.371,1.117 28.767,4.635 0.592,0.614 0.969,0.512 1.743,0.806 -1.068,12.188 -9.956,25.231 -5.658,38.018 23.805,-0.916 0.08,36.596 -2.702,47.791"
             style="fill:#ffffff;fill-opacity:1;fill-rule:nonzero;stroke:none"
             id="path212"
             inkscape:connector-curvature="0" /></g></g></g><g
       id="g214"
       transform="translate(75.671185,-116.02916)"><g
         id="g216"
         clip-path="url(#clipPath220)"><g
           id="g222"><g
             id="g224"><path
               d="m 593.658,199.344 c -6.071,-6.069 -12.436,-12.332 -18.724,-17.852 v 0 c -5.442,-4.78 -12.403,-7.281 -17.611,-11.741 v 0 c 5.555,-0.164 10.564,3.45 15.823,3.952 v 0 c -4.207,-6.753 -14.675,-11.32 -21,-15.808 v 0 C 543.875,152.028 536.29,145.597 528.34,139.58 v 0 c -6.491,-4.914 -12.94,-8.662 -18.977,-14.044 v 0 c -4.89,-4.358 -15.767,-10.224 -17.532,-16.235 v 0 c 10.75,-1.625 23.183,3.015 33.721,5.169 v 0 c 9.658,1.971 19.335,1.511 29.149,0.64 v 0 c 8.336,-0.742 16.36,-3.105 24.679,-3.404 v 0 c 4.569,-0.165 8.551,1.655 12.77,1.699 v 0 c 2.239,0.022 4.319,-0.407 6.387,-0.837 v 0 c 2.573,-0.534 5.128,-1.069 7.949,-0.733 v 0 c 0.838,17.893 -0.814,35.338 0.98,53.442 v 0 c 1.417,14.302 9.335,25.02 13.829,38.108 v 0 c -3.839,-3.796 -8.251,-7.229 -13.721,-7.274 v 0 c 2.112,12.027 15.809,25.082 27.125,29.636 v 0 l 2.553,3.406 c -16.56,-0.126 -32.868,-19.089 -43.594,-29.809 m 27.674,4.148 c -0.012,-0.036 -0.024,-0.071 -0.037,-0.107 v 0 c 0.027,0.026 0.054,0.053 0.081,0.08 v 0 c 0.139,0.173 0.203,0.26 0.191,0.26 v 0 c -0.011,0 -0.089,-0.078 -0.235,-0.233"
               style="fill:url(#linearGradient230);stroke:none"
               id="path232"
               inkscape:connector-curvature="0" /></g></g></g></g><g
       id="g234"
       transform="translate(75.671185,-116.02916)"><g
         id="g236"
         clip-path="url(#clipPath240)"><g
           id="g242"><g
             id="g244"><path
               d="m 669.154,238.269 c 0.452,0.116 0.883,0.199 1.289,0.245 v 0 l -1.701,1.7 c 0.081,-0.678 0.221,-1.325 0.412,-1.945 m -23.199,-14.184 c -6.55,-4.497 -15.171,-10.05 -20.739,-15.337 v 0 c 7.081,-6.168 6.552,-6.548 2.698,-14.491 v 0 c -3.353,-6.91 -3.911,-13.51 -5.791,-21.294 v 0 c -3.289,-13.616 -11.042,-27.808 -11.249,-42.351 v 0 c 0.089,3.332 1.113,6.439 3.254,8.921 v 0 c 0.385,-6.821 -1.827,-17.452 -6.364,-22.777 v 0 c 6.674,2.072 14.337,20.078 17.365,26.564 v 0 c 5.74,12.295 9.718,25.707 15.569,37.976 v 0 c 0.793,-11.079 -5.87,-21.785 -4.128,-32.904 v 0 c 2.596,1.809 3.948,5.138 4.981,8.118 v 0 c -0.412,-8.462 1.242,-16.708 0.828,-25.232 v 0 c -0.34,-6.996 -3.368,-14.243 -2.404,-21.207 v 0 c 6.193,6.548 5.261,23.812 6.638,32.909 v 0 c 1.522,10.051 1.931,25.641 8.509,33.953 v 0 c 2.966,-12.806 1.919,-26.503 2.558,-39.733 v 0 c 0.421,-8.669 -1.416,-22.429 2.741,-30.512 v 0 c 4.156,5.564 9.85,5.171 15.672,4.779 v 0 c 4.14,-0.279 8.346,-0.557 12.112,1.307 v 0 c -7.147,6.67 -3.174,14.693 0.774,22.144 v 0 c 3.088,5.83 11.352,11.841 13.631,16.96 v 0 c 3.262,7.314 -3.515,19.066 -4.953,26.211 v 0 c -1.664,8.271 -0.967,17.289 -4.853,24.611 v 0 c -2.339,-4.443 -4.801,-10.361 -8.532,-13.462 v 0 c -6.875,12.45 0.21,17.267 -1.065,28.849 v 0 c -0.965,8.752 -11.624,12.307 -14.053,20.182 v 0 c -6.628,-1.696 -17.847,-10.507 -23.199,-14.184 m -35.085,-94.25 c -10e-4,0.259 10e-4,0.518 0.004,0.777 v 0 c -0.007,-0.258 -0.008,-0.517 -0.004,-0.777"
               style="fill:url(#linearGradient250);stroke:none"
               id="path252"
               inkscape:connector-curvature="0" /></g></g></g></g><g
       id="g254"
       transform="translate(75.671185,-116.02916)"><g
         id="g256"
         clip-path="url(#clipPath260)"><g
           id="g262"><g
             id="g264"><path
               d="m 701.889,178.044 c 1.354,-6.737 2.98,-10.919 6.026,-17 v 0 c 3.23,-6.45 4.157,-9.077 -1.086,-15.168 v 0 c -0.756,1.198 -2.505,2.181 -3.22,3.806 v 0 c -1.111,-6.659 -4.13,-10.906 -7.445,-16.886 v 0 c -3.838,-6.925 -4.659,-13.736 -6.904,-20.798 v 0 c 15.285,4.484 34.523,-1.251 49.267,-2.842 v 0 c 17.246,-1.863 33.291,0.982 50.101,1.828 v 0 c -1.715,7.159 -12.578,10.852 -17.57,16.021 v 0 c -5.516,5.712 -3.992,12.164 -8.016,17.723 v 0 c -3.883,5.361 -9.691,4.887 -13.687,11.232 v 0 c -4.079,6.477 -7.06,13.775 -10.805,20.426 v 0 c -6.218,11.046 -14.187,15.933 -23.662,23.167 v 0 c -7.987,6.097 -14.759,14.315 -22.148,21.019 v 0 c -1.084,-14.968 6.331,-28.517 9.149,-42.528 m -13.574,-66.338 h 0.852 c 0.031,0.098 0.062,0.195 0.093,0.292 v 0 c -0.317,-0.093 -0.631,-0.19 -0.945,-0.292"
               style="fill:url(#linearGradient270);stroke:none"
               id="path272"
               inkscape:connector-curvature="0" /></g></g></g></g></g></svg>